# xmcd
#
# Track frame offsets:
#	150
#	19913
#	33268
#	52274
#	70488
#	86524
#	104104
#	125874
#	140787
#	152181
#	176190
#	193206
#	216177
#
# Disc length: 3062 seconds
# Revision: 0
# Processed by: cddbd v1.5.2PL0 Copyright (c) Steve Scherf et al.
# Submitted via: dBpowerAMP V12.0
#
DISCID=d60bf40d
DTITLE=The Texas Horns - Blues Gotta Holda Me
DYEAR=2015
DGENRE=Blues Instrumental
TTITLE0=Soul Stroll
TTITLE1=Go On Fool
TTITLE2=You're Driving Me Crazy
TTITLE3=Kick Me Again
TTITLE4=Cold Blooded Lover
TTITLE5=Lost Mind
TTITLE6=Sing Sing Sing (Let's Make a Better Worild)
TTITLE7=Rippin and Trippin
TTITLE8=Blues Gotta Holda Me
TTITLE9=People Get Ready
TTITLE10=Caldonia
TTITLE11=Home Cookin
TTITLE12=Spanky's Twist
EXTD=
EXTT0=
EXTT1=
EXTT2=
EXTT3=
EXTT4=
EXTT5=
EXTT6=
EXTT7=
EXTT8=
EXTT9=
EXTT10=
EXTT11=
EXTT12=
PLAYORDER=
